<svg xmlns="http://www.w3.org/2000/svg" width="300" height="165" fill="none" aria-labelledby="descId" role="img" viewBox="0 0 300 165"><title id="titleId"/><desc id="descId"/><style>.header{font:600 18px &apos;Segoe UI&apos;,Ubuntu,Sans-Serif;fill:#2f80ed;animation:fadeInAnimation .8s ease-in-out forwards}@supports (-moz-appearance:auto){.header{font-size:15.5px}}.lang-name{font:400 11px &quot;Segoe UI&quot;,Ubuntu,Sans-Serif;fill:#434d58}.stagger{opacity:0;animation:fadeInAnimation .3s ease-in-out forwards}#rect-mask rect{animation:slideInAnimation 1s ease-in-out forwards}</style><rect width="299" height="99%" x=".5" y=".5" fill="#fffefe" stroke="#e4e2e2" stroke-opacity="0" data-testid="card-bg" rx="4.5"/><g data-testid="card-title"><g><text x="0" y="0" class="header" data-testid="header" transform="translate(25, 35) translate(0, 0)">Most Used Languages</text></g></g><g data-testid="main-card-body" transform="translate(0, 55)"><svg x="25" data-testid="lang-items"><mask id="rect-mask"><rect width="250" height="8" x="0" y="0" fill="#fff" rx="5"/></mask><rect width="76.45" height="8" x="0" y="0" fill="#dea584" data-testid="lang-progress" mask="url(#rect-mask)"/><rect width="50.69" height="8" x="76.45" y="0" fill="#f1e05a" data-testid="lang-progress" mask="url(#rect-mask)"/><rect width="49.75" height="8" x="127.14" y="0" fill="#e34c26" data-testid="lang-progress" mask="url(#rect-mask)"/><rect width="39.96" height="8" x="176.89" y="0" fill="#3178c6" data-testid="lang-progress" mask="url(#rect-mask)"/><rect width="18.16" height="8" x="216.85" y="0" fill="#00B4AB" data-testid="lang-progress" mask="url(#rect-mask)"/><rect width="14.99" height="8" x="235.01" y="0" fill="#639" data-testid="lang-progress" mask="url(#rect-mask)"/><g><g><g><g class="stagger" style="animation-delay:450ms" transform="translate(0, 25) translate(0, 0) translate(0, 0)"><circle cx="5" cy="6" r="5" fill="#dea584"/><text x="15" y="10" class="lang-name" data-testid="lang-name">Rust 30.58%</text></g></g><g><g class="stagger" style="animation-delay:600ms" transform="translate(0, 25) translate(0, 0) translate(0, 25)"><circle cx="5" cy="6" r="5" fill="#f1e05a"/><text x="15" y="10" class="lang-name" data-testid="lang-name">JavaScript 20.27%</text></g></g><g><g class="stagger" style="animation-delay:750ms" transform="translate(0, 25) translate(0, 0) translate(0, 50)"><circle cx="5" cy="6" r="5" fill="#e34c26"/><text x="15" y="10" class="lang-name" data-testid="lang-name">HTML 19.90%</text></g></g></g><g><g><g class="stagger" style="animation-delay:450ms" transform="translate(0, 25) translate(150, 0) translate(0, 0)"><circle cx="5" cy="6" r="5" fill="#3178c6"/><text x="15" y="10" class="lang-name" data-testid="lang-name">TypeScript 15.98%</text></g></g><g><g class="stagger" style="animation-delay:600ms" transform="translate(0, 25) translate(150, 0) translate(0, 25)"><circle cx="5" cy="6" r="5" fill="#00B4AB"/><text x="15" y="10" class="lang-name" data-testid="lang-name">Dart 7.27%</text></g></g><g><g class="stagger" style="animation-delay:750ms" transform="translate(0, 25) translate(150, 0) translate(0, 50)"><circle cx="5" cy="6" r="5" fill="#639"/><text x="15" y="10" class="lang-name" data-testid="lang-name">CSS 6.00%</text></g></g></g></g></svg></g></svg>